<svg height="512pt" viewBox="0 0 512 512" width="512pt" xmlns="http://www.w3.org/2000/svg"><path d="m512 256c0 68.378906-26.628906 132.671875-74.980469 181.019531-48.347656 48.351563-112.640625 74.980469-181.019531 74.980469s-132.671875-26.628906-181.019531-74.980469c-48.351563-48.347656-74.980469-112.640625-74.980469-181.019531s26.628906-132.671875 74.980469-181.019531c48.347656-48.351563 112.640625-74.980469 181.019531-74.980469s132.671875 26.628906 181.019531 74.980469c48.351563 48.347656 74.980469 112.640625 74.980469 181.019531zm0 0" fill="#00bff0"/><path d="m437.5 256c0 100.238281-81.261719 181.5-181.5 181.5s-181.5-81.261719-181.5-181.5 81.261719-181.5 181.5-181.5 181.5 81.261719 181.5 181.5zm0 0" fill="#ff501a"/><path d="m256 59.5c-108.351562 0-196.5 88.148438-196.5 196.5s88.148438 196.5 196.5 196.5 196.5-88.148438 196.5-196.5-88.148438-196.5-196.5-196.5zm0 363c-91.808594 0-166.5-74.691406-166.5-166.5s74.691406-166.5 166.5-166.5 166.5 74.691406 166.5 166.5-74.691406 166.5-166.5 166.5zm0 0" fill="#fff"/><path d="m512 256c0 68.378906-26.628906 132.671875-74.980469 181.019531-48.347656 48.351563-112.640625 74.980469-181.019531 74.980469v-512c68.378906 0 132.671875 26.628906 181.019531 74.980469 48.351563 48.347656 74.980469 112.640625 74.980469 181.019531zm0 0" fill="#0099e3"/><path d="m437.5 256c0 100.238281-81.261719 181.5-181.5 181.5v-363c100.238281 0 181.5 81.261719 181.5 181.5zm0 0" fill="#c91d00"/><path d="m452.5 256c0 108.351562-88.148438 196.5-196.5 196.5v-30c91.808594 0 166.5-74.691406 166.5-166.5s-74.691406-166.5-166.5-166.5v-30c108.351562 0 196.5 88.148438 196.5 196.5zm0 0" fill="#e0e0e2"/><path id="starsvg" d="m316.539062 281.089844 14.289063 83.332031-74.828125-39.34375-74.828125 39.34375 14.289063-83.332031-60.539063-59.011719 83.65625-12.15625 37.421875-75.8125 37.421875 75.8125 83.65625 12.15625zm0 0" fill="#ffdc2e"/><path d="m330.828125 364.421875-74.828125-39.34375v-190.96875l37.421875 75.8125 83.65625 12.15625-60.539063 59.011719zm0 0" fill="#ffbf02"/></svg>
